<svg width="142" height="34" viewBox="0 0 142 34" fill="none" xmlns="http://www.w3.org/2000/svg">
<path d="M8.49707 9.1834C8.49707 13.831 12.3802 17.6627 17.1263 17.6627C17.171 17.6627 17.2305 17.6627 17.2751 17.6627H17.29C17.8702 17.6481 18.4356 17.5899 18.9861 17.4733C25.1307 16.2058 30.219 9.1834 31.8556 9.1834C30.219 9.1834 25.1307 2.16102 18.9861 0.8935C18.4356 0.776946 17.8702 0.704102 17.29 0.704102H17.2751C17.2305 0.704102 17.171 0.704102 17.1263 0.704102C12.3802 0.704102 8.49707 4.55038 8.49707 9.1834Z" fill="#99C3FF"/>
<path d="M41.5713 14.836C41.1845 14.8214 40.8125 14.7777 40.4406 14.7049C36.3342 13.8599 32.9569 9.18314 31.856 9.18314C32.9421 9.18314 36.3342 4.50641 40.4406 3.6614C40.7976 3.58855 41.1845 3.54484 41.5713 3.53027H41.5862C41.6159 3.53027 41.6606 3.53027 41.6903 3.53027C44.8445 3.53027 47.4332 6.09446 47.4332 9.18314C47.4332 12.2718 44.8445 14.836 41.6903 14.836C41.6457 14.836 41.6159 14.836 41.5713 14.836Z" fill="#99C3FF"/>
<path d="M4.53955 15.158C4.53955 19.8056 8.42272 23.6373 13.1688 23.6373C13.2134 23.6373 13.273 23.6373 13.3176 23.6373H13.3325C13.9127 23.6227 14.4781 23.5645 15.0286 23.4479C21.1732 22.1804 26.2615 15.158 27.898 15.158C26.2615 15.158 21.1732 8.13563 15.0286 6.86811C14.4781 6.75156 13.9127 6.67871 13.3325 6.67871H13.3176C13.273 6.67871 13.2134 6.67871 13.1688 6.67871C8.42272 6.67871 4.53955 10.5104 4.53955 15.158Z" fill="#314AFF"/>
<path d="M37.5982 20.8106C37.2113 20.796 36.8394 20.7523 36.4674 20.6795C32.3611 19.8345 28.9838 15.1577 27.8828 15.1577C28.9689 15.1577 32.3611 10.481 36.4674 9.63601C36.8245 9.56316 37.2113 9.51945 37.5982 9.50488H37.613C37.6428 9.50488 37.6874 9.50488 37.7172 9.50488C40.8713 9.50488 43.4601 12.0691 43.4601 15.1577C43.4601 18.2464 40.8713 20.8106 37.7172 20.8106C37.6874 20.8106 37.6577 20.8106 37.5982 20.8106C37.613 20.8106 37.613 20.8106 37.5982 20.8106Z" fill="#314AFF"/>
<path d="M0.58252 21.1297C0.58252 25.7773 4.46568 29.609 9.21177 29.609C9.25641 29.609 9.31592 29.609 9.36055 29.609H9.37543C9.95567 29.5945 10.521 29.5362 11.0715 29.4196C17.2162 28.1521 22.3044 21.1297 23.941 21.1297C22.3044 21.1297 17.2162 14.1074 11.0715 12.8398C10.521 12.7233 9.95567 12.6504 9.37543 12.6504H9.36055C9.31592 12.6504 9.25641 12.6504 9.21177 12.6504C4.45081 12.6359 0.58252 16.4821 0.58252 21.1297Z" fill="#0310B4"/>
<path d="M33.6411 26.7813C33.2543 26.7667 32.8824 26.723 32.5104 26.6502C28.4041 25.8052 25.0268 21.1285 23.9258 21.1285C25.0119 21.1285 28.4041 16.4517 32.5104 15.6067C32.8675 15.5339 33.2543 15.4902 33.6411 15.4756H33.656C33.6858 15.4756 33.7304 15.4756 33.7602 15.4756C36.9143 15.4756 39.5031 18.0398 39.5031 21.1285C39.5031 24.2171 36.9143 26.7813 33.7602 26.7813C33.7155 26.7813 33.6858 26.7813 33.6411 26.7813Z" fill="#0310B4"/>
<path d="M70.7916 7.33313H76.1477V7.6828C76.1477 11.0629 74.2582 13.831 70.6131 13.831C67.0572 13.831 64.8999 11.2814 64.8999 7.42055C64.8999 3.73453 66.9977 1.06836 70.6131 1.06836C73.306 1.06836 74.764 2.46701 75.5823 4.24445L74.035 4.90007C73.3655 3.32659 72.1009 2.45244 70.6131 2.45244C68.0987 2.45244 66.596 4.3173 66.596 7.40598C66.596 10.5384 68.1136 12.4324 70.6131 12.4324C72.577 12.4324 74.1243 10.99 74.4516 8.71721H70.7767V7.33313H70.7916Z" fill="white"/>
<path d="M78.8557 1.34473V2.9182H77.3232V1.34473H78.8557ZM78.8557 4.82677V13.5392H77.3232V4.82677H78.8557Z" fill="white"/>
<path d="M81.1028 10.9603V6.13793H79.853V4.8267H81.1028V2.94727H82.6352V4.8267H85.2538V6.13793H82.6352V11.0186C82.6352 12.2424 83.5725 12.5047 85.2686 12.155V13.5537C83.5428 13.947 81.1028 13.8014 81.1028 10.9603Z" fill="white"/>
<path d="M88.3332 12.1551H93.3918V13.5538H86.8008V1.34473H88.3332V12.1551Z" fill="white"/>
<path d="M95.8464 1.34473V2.9182H94.314V1.34473H95.8464ZM95.8464 4.82677V13.5392H94.314V4.82677H95.8464Z" fill="white"/>
<path d="M98.6137 4.82657V3.82129C98.6137 0.98029 101.054 0.892876 102.779 1.37366V2.7723C101.083 2.33523 100.146 2.5392 100.146 3.76302V4.82657H102.765V6.22522H100.146V13.5535H98.6137V6.22522H97.0068V4.82657H98.6137Z" fill="white"/>
<path d="M103.062 9.19763C103.062 6.34206 105.056 4.59375 107.585 4.59375C110.278 4.59375 111.915 6.34206 111.915 9.19763V9.60557H104.773C104.892 11.3976 105.889 12.432 107.585 12.432C108.731 12.432 109.564 11.8929 110.1 11.0042L111.558 11.6161C110.457 13.3062 108.969 13.8307 107.585 13.8307C104.848 13.8161 103.062 12.0823 103.062 9.19763ZM110.159 8.20692C109.906 6.80828 109.133 6.02154 107.6 6.02154C106.098 6.02154 105.16 6.80828 104.863 8.20692H110.159Z" fill="white"/>
<path d="M68.5754 18.7258V22.339H72.6222V23.7376H68.5754V28.1521H73.6339V29.5507H67.043V17.3271H73.6339V18.7258H68.5754Z" fill="#706F92"/>
<path d="M83.275 24.9325V29.551H81.7425V24.8888C81.7425 23.5339 81.5789 21.9895 79.6894 21.9895C78.3057 21.9895 76.8923 22.718 76.8923 24.4809V29.5364H75.3599V20.824H76.6543V21.9604C77.4428 21.0571 78.4099 20.6055 79.6596 20.6055C82.8286 20.6055 83.275 22.6743 83.275 24.9325Z" fill="#706F92"/>
<path d="M85.343 26.9721V22.1496H84.0933V20.8384H85.343V18.959H86.8754V20.8384H89.494V22.1496H86.8754V27.0303C86.8754 28.2542 87.8128 28.5164 89.5089 28.1667V29.5654C87.783 29.9442 85.343 29.8131 85.343 26.9721Z" fill="#706F92"/>
<path d="M90.1484 25.2093C90.1484 22.3538 92.1421 20.6055 94.6714 20.6055C97.3643 20.6055 99.0009 22.3538 99.0009 25.2093V25.6173H91.8594C91.9784 27.4093 92.9753 28.4437 94.6714 28.4437C95.817 28.4437 96.6501 27.9047 97.1857 27.0159L98.6438 27.6278C97.5428 29.3179 96.055 29.8424 94.6714 29.8424C91.9338 29.8278 90.1484 28.0795 90.1484 25.2093ZM97.2304 24.2041C96.9775 22.8054 96.2038 22.0187 94.6714 22.0187C93.1687 22.0187 92.2314 22.8054 91.9338 24.2041H97.2304Z" fill="#706F92"/>
<path d="M105.012 20.8228V22.2215C102.602 21.7698 101.694 22.6731 101.694 24.4943V29.5498H100.162V20.8374H101.456V22.0029C102.259 20.8665 103.539 20.2546 105.012 20.8228Z" fill="#706F92"/>
<path d="M107.541 28.6185V33.3098H106.008V20.8239H107.303V21.9749C108.091 21.0716 109.058 20.5908 110.278 20.5908C112.808 20.5908 114.519 22.1789 114.519 25.0927C114.519 28.1668 112.584 29.7112 110.531 29.7112C109.252 29.7257 108.448 29.4781 107.541 28.6185ZM107.57 25.1656C107.57 27.8026 108.895 28.4291 110.293 28.4291C111.751 28.4291 112.837 27.249 112.837 25.0927C112.837 23.1696 111.751 22.0186 110.293 22.0186C108.88 22.0332 107.57 22.7325 107.57 25.1656Z" fill="#706F92"/>
<path d="M120.544 20.8228V22.2215C118.134 21.7698 117.226 22.6731 117.226 24.4943V29.5498H115.694V20.8374H116.988V22.0029C117.777 20.8665 119.071 20.2546 120.544 20.8228Z" fill="#706F92"/>
<path d="M123.252 17.3418V18.9153H121.72V17.3418H123.252ZM123.252 20.8238V29.5363H121.72V20.8238H123.252Z" fill="#706F92"/>
<path d="M124.249 27.4821L125.662 26.8847C126.168 27.9774 127.031 28.5456 128.207 28.5456C129.278 28.5456 130.2 28.1086 130.2 27.2344C130.2 26.2728 129.263 26.0252 128.355 25.8066L127.269 25.5298C125.261 25.0199 124.725 23.9417 124.8 22.9947C124.904 21.4795 126.317 20.5908 128.132 20.5908C129.784 20.5908 131.019 21.3339 131.48 22.7325L130.126 23.2861C129.918 22.3246 129.159 21.9749 128.013 21.9749C127.269 21.9749 126.406 22.2517 126.347 22.9656C126.272 23.6649 126.793 23.9709 127.522 24.1749C128.579 24.4517 129.04 24.5391 129.888 24.7868C131.033 25.1219 131.762 25.9377 131.762 27.1907C131.762 28.7933 130.215 29.8132 128.236 29.8132C126.644 29.8277 125.142 29.245 124.249 27.4821Z" fill="#706F92"/>
<path d="M132.58 25.2093C132.58 22.3538 134.574 20.6055 137.103 20.6055C139.796 20.6055 141.433 22.3538 141.433 25.2093V25.6173H134.291C134.41 27.4093 135.407 28.4437 137.103 28.4437C138.249 28.4437 139.082 27.9047 139.617 27.0159L141.075 27.6278C139.974 29.3179 138.487 29.8424 137.103 29.8424C134.351 29.8278 132.58 28.0795 132.58 25.2093ZM139.662 24.2041C139.409 22.8054 138.635 22.0187 137.103 22.0187C135.6 22.0187 134.663 22.8054 134.365 24.2041H139.662Z" fill="#706F92"/>
</svg>
